<svg width="21" height="15" viewBox="0 0 21 15" fill="none" xmlns="http://www.w3.org/2000/svg">
<g id="Aleatori">
<path id="Subtract" fill-rule="evenodd" clip-rule="evenodd" d="M11.2452 10.1532C11.8867 10.9023 12.6052 11.615 13.4475 12.2191C15.1981 13.4745 17.4202 14.2227 20.4892 14.066L20.3872 12.0686C17.7352 12.204 15.9676 11.5652 14.6131 10.5938C13.7953 10.0074 13.1061 9.28622 12.4539 8.47823C12.4072 8.54362 12.36 8.6097 12.3125 8.67648L12.1623 8.88782C11.8778 9.28824 11.574 9.71586 11.2452 10.1532ZM9.32633 4.28884C8.71111 3.54973 8.02885 2.84559 7.23627 2.24825C5.56171 0.986178 3.44505 0.229244 0.511414 0.387335L0.619035 2.38444C3.10531 2.25045 4.75248 2.8807 6.03252 3.84543C6.81079 4.43199 7.47067 5.15242 8.1071 5.96226C8.15074 5.90104 8.19479 5.83918 8.23928 5.77669L8.25795 5.75046C8.58518 5.29079 8.93802 4.79515 9.32633 4.28884Z" fill="#F3F4F6"/>
<path id="Arrow 3" d="M0.565186 13.0674C11.405 13.6515 8.99615 0.801641 20.4382 1.38592" stroke="#F3F4F6" stroke-width="2"/>
</g>
</svg>
