<svg width="31" height="30" viewBox="0 0 31 30" fill="none" xmlns="http://www.w3.org/2000/svg">
<path fill-rule="evenodd" clip-rule="evenodd" d="M15.5 28.5C22.9558 28.5 29 22.4558 29 15C29 7.54416 22.9558 1.5 15.5 1.5C8.04416 1.5 2 7.54416 2 15C2 22.4558 8.04416 28.5 15.5 28.5ZM15.9771 11.1794C18.7051 9.85514 20.0691 9.19302 20.7875 9.68371C20.9417 9.78901 21.0748 9.92216 21.1801 10.0763C21.6708 10.7947 21.0087 12.1587 19.6844 14.8867C18.9764 16.3454 18.6223 17.0747 18.0109 17.2705C17.8742 17.3143 17.732 17.3382 17.5885 17.3416C17.5034 17.3436 17.4194 17.3353 17.3351 17.3166C17.0638 17.8297 16.3412 18.1805 15.0226 18.8206L15.0226 18.8206C12.2946 20.1449 10.9306 20.807 10.2122 20.3163C10.0581 20.211 9.92491 20.0778 9.81961 19.9237C9.32892 19.2053 9.99104 17.8413 11.3153 15.1133L11.3153 15.1133C12.0234 13.6546 12.3774 12.9253 12.9888 12.7295C13.1255 12.6857 13.2677 12.6618 13.4112 12.6584C13.4964 12.6564 13.5804 12.6648 13.6646 12.6834C13.9359 12.1703 14.6585 11.8195 15.9771 11.1794Z" fill="#333333"/>
</svg>
