<svg width="20" height="21" viewBox="0 0 20 21" fill="none" xmlns="http://www.w3.org/2000/svg">
<g id="Headphones">
<path id="Vector" d="M6.625 11.625H6.0625C4.81973 11.625 3.8125 12.634 3.8125 13.8792V16.1208C3.8125 17.3657 4.81973 18.375 6.0625 18.375H6.625C7.24621 18.375 7.75 17.8702 7.75 17.2479V12.7521C7.75 12.1295 7.24621 11.625 6.625 11.625ZM13.9375 11.625H13.375C12.7538 11.625 12.25 12.1295 12.25 12.7521V17.2479C12.25 17.8702 12.7538 18.375 13.375 18.375H13.9375C15.1803 18.375 16.1875 17.3657 16.1875 16.1208V13.8792C16.1875 12.6343 15.1803 11.625 13.9375 11.625ZM10 2.625C4.96949 2.625 1.16066 6.81316 1 11.625V15.5625C1 15.8733 1.25172 16.125 1.5625 16.125H2.125C2.43578 16.125 2.6875 15.8733 2.6875 15.5625V11.625C2.6875 7.59363 5.96863 4.31953 10 4.31883C14.0314 4.31953 17.3125 7.59363 17.3125 11.625V15.5625C17.3125 15.8733 17.5642 16.125 17.875 16.125H18.4375C18.7483 16.125 19 15.8733 19 15.5625V11.625C18.8393 6.81316 15.0305 2.625 10 2.625Z" fill="#A5A5A5"/>
</g>
</svg>
