<svg width="31" height="30" viewBox="0 0 31 30" fill="none" xmlns="http://www.w3.org/2000/svg">
<path d="M16.8851 3.24499C16.5107 2.91253 16.0151 2.72729 15.5 2.72729C14.9848 2.72729 14.4892 2.91253 14.1149 3.24499L4.34876 11.9154C4.04973 12.1813 3.81163 12.5016 3.64904 12.8569C3.48645 13.2122 3.40279 13.595 3.4032 13.9817V24.531C3.40373 25.2841 3.72259 26.0062 4.28968 26.5386C4.85677 27.0709 5.62568 27.37 6.42739 27.37H9.45159C10.2537 27.37 12.4758 27.3485 12.4758 27.3485C12.4758 27.3485 12.4758 25.2825 12.4758 24.5291V19.7942C12.4758 19.5431 12.582 19.3022 12.771 19.1246C12.9601 18.947 13.2165 18.8473 13.4838 18.8473H17.5161C17.7835 18.8473 18.0399 18.947 18.2289 19.1246C18.418 19.3022 18.5242 19.5431 18.5242 19.7942V24.5291C18.5242 25.2825 18.5242 27.3485 18.5242 27.3485C18.5242 27.3485 20.7463 27.37 21.5484 27.37H24.5726C25.3746 27.37 26.1438 27.0707 26.711 26.5379C27.2781 26.0051 27.5967 25.2825 27.5967 24.5291V13.9798C27.5966 13.5933 27.5125 13.2108 27.3496 12.8558C27.1866 12.5009 26.9483 12.1809 26.6492 11.9154L16.8851 3.2412V3.24499Z" fill="white"/>
</svg>
