<svg width="30" height="31" viewBox="0 0 30 31" fill="none" xmlns="http://www.w3.org/2000/svg">
<path d="M15 3.5C12.613 3.5 10.3239 4.44821 8.63602 6.13604C6.9482 7.82387 5.99999 10.1131 5.99999 12.5V17.879L4.93949 18.9395C4.72977 19.1493 4.58696 19.4165 4.52911 19.7075C4.47126 19.9984 4.50096 20.2999 4.61447 20.574C4.72797 20.848 4.92018 21.0823 5.1668 21.2471C5.41341 21.4119 5.70336 21.4999 5.99999 21.5H24C24.2966 21.4999 24.5866 21.4119 24.8332 21.2471C25.0798 21.0823 25.272 20.848 25.3855 20.574C25.499 20.2999 25.5287 19.9984 25.4709 19.7075C25.413 19.4165 25.2702 19.1493 25.0605 18.9395L24 17.879V12.5C24 10.1131 23.0518 7.82387 21.3639 6.13604C19.6761 4.44821 17.3869 3.5 15 3.5ZM15 27.5C13.8065 27.5 12.6619 27.0259 11.818 26.182C10.9741 25.3381 10.5 24.1935 10.5 23H19.5C19.5 24.1935 19.0259 25.3381 18.182 26.182C17.3381 27.0259 16.1935 27.5 15 27.5Z" fill="white"/>
</svg>
