<svg width="32" height="32" viewBox="0 0 32 32" fill="none" xmlns="http://www.w3.org/2000/svg">
<g clip-path="url(#clip0_43_542)">
<path d="M25.4361 18.2772L15.653 27.9664L5.86987 18.2772C5.22459 17.6493 4.71631 16.8945 4.37704 16.0605C4.03776 15.2265 3.87485 14.3313 3.89856 13.4312C3.92227 12.5311 4.13209 11.6457 4.51479 10.8307C4.8975 10.0157 5.44481 9.2888 6.12226 8.69572C6.79971 8.10264 7.59262 7.65624 8.45106 7.38465C9.3095 7.11306 10.2149 7.02216 11.1102 7.11767C12.0055 7.21317 12.8713 7.49302 13.6531 7.93958C14.435 8.38615 15.1159 8.98976 15.653 9.7124C16.1924 8.99501 16.8741 8.39667 17.6554 7.95484C18.4367 7.51302 19.3008 7.23721 20.1935 7.14469C21.0863 7.05217 21.9886 7.14493 22.8439 7.41715C23.6992 7.68937 24.4891 8.1352 25.1642 8.72674C25.8392 9.31828 26.3849 10.0428 26.7671 10.8549C27.1493 11.6671 27.3597 12.5494 27.3853 13.4466C27.4108 14.3438 27.2508 15.2366 26.9155 16.0691C26.5801 16.9017 26.0764 17.6561 25.4361 18.285" stroke="#999999" stroke-width="1.73922" stroke-linecap="round" stroke-linejoin="round"/>
</g>
<defs>
<clipPath id="clip0_43_542">
<rect width="31.3059" height="31.3059" fill="white" transform="translate(0 0.573669)"/>
</clipPath>
</defs>
</svg>
