<svg width="65" height="64" viewBox="0 0 65 64" fill="none" xmlns="http://www.w3.org/2000/svg">
<circle cx="32.3059" cy="31.7266" r="25.6253" fill="white"/>
<g clip-path="url(#clip0_43_548)">
<path d="M28.6452 23.1849H26.2047C25.5308 23.1849 24.9845 23.7312 24.9845 24.4051V39.0482C24.9845 39.7221 25.5308 40.2684 26.2047 40.2684H28.6452C29.3192 40.2684 29.8655 39.7221 29.8655 39.0482V24.4051C29.8655 23.7312 29.3192 23.1849 28.6452 23.1849Z" fill="#2C2C2C"/>
<path d="M38.4073 23.1849H35.9668C35.2928 23.1849 34.7465 23.7312 34.7465 24.4051V39.0482C34.7465 39.7221 35.2928 40.2684 35.9668 40.2684H38.4073C39.0812 40.2684 39.6275 39.7221 39.6275 39.0482V24.4051C39.6275 23.7312 39.0812 23.1849 38.4073 23.1849Z" fill="#2C2C2C"/>
</g>
<defs>
<clipPath id="clip0_43_548">
<rect width="29.2861" height="29.2861" fill="white" transform="translate(17.6627 17.0836)"/>
</clipPath>
</defs>
</svg>
