<svg width="21" height="19" viewBox="0 0 21 19" fill="none" xmlns="http://www.w3.org/2000/svg">
<g id="Repeat">
<path id="Union" fill-rule="evenodd" clip-rule="evenodd" d="M15.4808 6.38046L20.2113 4.2127L15.9808 1.20842L15.4808 6.38046ZM2.55722 10.0885C2.67028 8.91876 3.14256 7.42533 4.79264 6.36962C6.49028 5.28348 9.61863 4.53786 15.3383 5.37913L15.6358 3.40103C9.70777 2.52911 6.00512 3.22331 3.71779 4.68673C1.38291 6.18058 0.716281 8.34645 0.565884 9.90253L2.55722 10.0885Z" fill="#F3F4F6"/>
<path id="Union_2" fill-rule="evenodd" clip-rule="evenodd" d="M5.2709 12.8492L0.647897 15.2303L5.01473 18.039L5.2709 12.8492ZM18.2061 8.43129C18.1482 9.60363 17.7469 11.1156 16.148 12.2445C14.5028 13.4061 11.4119 14.2927 5.65734 13.7129L5.45333 15.7026C11.4171 16.3035 15.0836 15.4422 17.2999 13.8774C19.5625 12.2799 20.1268 10.0871 20.2038 8.52635L18.2061 8.43129Z" fill="#F3F4F6"/>
</g>
</svg>
