<svg width="30" height="31" viewBox="0 0 30 31" fill="none" xmlns="http://www.w3.org/2000/svg">
<path fill-rule="evenodd" clip-rule="evenodd" d="M17.235 5.255C16.665 2.915 13.335 2.915 12.765 5.255C12.6799 5.60662 12.513 5.93319 12.2778 6.20812C12.0427 6.48305 11.7459 6.69857 11.4118 6.83716C11.0776 6.97574 10.7154 7.03346 10.3547 7.00563C9.99399 6.9778 9.64496 6.86521 9.33599 6.677C7.27799 5.423 4.92299 7.778 6.17699 9.836C6.98699 11.165 6.26849 12.899 4.75649 13.2665C2.41499 13.835 2.41499 17.1665 4.75649 17.7335C5.10821 17.8187 5.43483 17.9858 5.70976 18.2211C5.98469 18.4564 6.20015 18.7534 6.3386 19.0877C6.47705 19.4221 6.53458 19.7844 6.50649 20.1452C6.47841 20.506 6.36551 20.8551 6.17699 21.164C4.92299 23.222 7.27799 25.577 9.33599 24.323C9.6449 24.1345 9.99397 24.0216 10.3548 23.9935C10.7156 23.9654 11.0779 24.0229 11.4123 24.1614C11.7466 24.2998 12.0436 24.5153 12.2789 24.7902C12.5142 25.0652 12.6813 25.3918 12.7665 25.7435C13.335 28.085 16.6665 28.085 17.2335 25.7435C17.319 25.392 17.4862 25.0656 17.7216 24.7908C17.957 24.5161 18.2539 24.3008 18.5881 24.1624C18.9224 24.0239 19.2846 23.9664 19.6453 23.9943C20.006 24.0222 20.355 24.1348 20.664 24.323C22.722 25.577 25.077 23.222 23.823 21.164C23.6348 20.855 23.5222 20.506 23.4943 20.1453C23.4663 19.7846 23.5239 19.4224 23.6623 19.0881C23.8008 18.7539 24.0161 18.457 24.2908 18.2216C24.5656 17.9862 24.892 17.819 25.2435 17.7335C27.585 17.165 27.585 13.8335 25.2435 13.2665C24.8918 13.1813 24.5652 13.0142 24.2902 12.7789C24.0153 12.5436 23.7998 12.2466 23.6614 11.9123C23.5229 11.5779 23.4654 11.2156 23.4935 10.8548C23.5216 10.494 23.6345 10.1449 23.823 9.836C25.077 7.778 22.722 5.423 20.664 6.677C20.3551 6.86552 20.006 6.97842 19.6452 7.0065C19.2844 7.03459 18.9221 6.97706 18.5877 6.83861C18.2534 6.70016 17.9564 6.4847 17.7211 6.20977C17.4858 5.93484 17.3187 5.60822 17.2335 5.2565L17.235 5.255ZM15 20C16.1935 20 17.3381 19.5259 18.182 18.682C19.0259 17.8381 19.5 16.6935 19.5 15.5C19.5 14.3065 19.0259 13.1619 18.182 12.318C17.3381 11.4741 16.1935 11 15 11C13.8065 11 12.6619 11.4741 11.818 12.318C10.9741 13.1619 10.5 14.3065 10.5 15.5C10.5 16.6935 10.9741 17.8381 11.818 18.682C12.6619 19.5259 13.8065 20 15 20Z" fill="white"/>
</svg>
