<svg width="20" height="21" viewBox="0 0 20 21" fill="none" xmlns="http://www.w3.org/2000/svg">
<g id="volume-up">
<path id="Vector" fill-rule="evenodd" clip-rule="evenodd" d="M9.383 3.80264C9.56569 3.87838 9.72181 4.0066 9.83163 4.17107C9.94146 4.33553 10 4.52887 10 4.72664V16.7266C9.99996 16.9244 9.94129 17.1177 9.8314 17.2821C9.72152 17.4465 9.56535 17.5746 9.38265 17.6503C9.19995 17.726 8.99892 17.7458 8.80497 17.7072C8.61102 17.6687 8.43285 17.5735 8.293 17.4336L4.586 13.7266H2C1.73478 13.7266 1.48043 13.6213 1.29289 13.4337C1.10536 13.2462 1 12.9919 1 12.7266V8.72664C1 8.46142 1.10536 8.20707 1.29289 8.01953C1.48043 7.832 1.73478 7.72664 2 7.72664H4.586L8.293 4.01964C8.43285 3.87971 8.61105 3.7844 8.80508 3.74577C8.9991 3.70714 9.20023 3.72694 9.383 3.80264V3.80264ZM14.657 3.65564C14.8445 3.46817 15.0988 3.36285 15.364 3.36285C15.6292 3.36285 15.8835 3.46817 16.071 3.65564C17.0008 4.58329 17.7382 5.6855 18.2409 6.89895C18.7435 8.1124 19.0015 9.4132 19 10.7266C19.0015 12.0401 18.7435 13.3409 18.2409 14.5543C17.7382 15.7678 17.0008 16.87 16.071 17.7976C15.8824 17.9798 15.6298 18.0806 15.3676 18.0783C15.1054 18.076 14.8546 17.9709 14.6692 17.7855C14.4838 17.6001 14.3786 17.3492 14.3763 17.087C14.374 16.8248 14.4748 16.5722 14.657 16.3836C15.4011 15.6417 15.9912 14.7599 16.3933 13.7891C16.7955 12.8182 17.0016 11.7775 17 10.7266C17 8.51664 16.106 6.51864 14.657 5.06964C14.4695 4.88211 14.3642 4.6278 14.3642 4.36264C14.3642 4.09748 14.4695 3.84317 14.657 3.65564V3.65564ZM11.828 6.48364C11.9209 6.39066 12.0312 6.31691 12.1526 6.26658C12.274 6.21626 12.4041 6.19035 12.5355 6.19035C12.6669 6.19035 12.797 6.21626 12.9184 6.26658C13.0398 6.31691 13.1501 6.39066 13.243 6.48364C13.8009 7.04031 14.2433 7.70171 14.5448 8.42985C14.8463 9.158 15.001 9.93854 15 10.7266C15.001 11.5147 14.8463 12.2953 14.5447 13.0234C14.2432 13.7515 13.8008 14.4129 13.243 14.9696C13.0554 15.1573 12.8009 15.2627 12.5355 15.2627C12.2701 15.2627 12.0156 15.1573 11.828 14.9696C11.6404 14.782 11.5349 14.5275 11.5349 14.2621C11.5349 13.9968 11.6404 13.7423 11.828 13.5546C12.2002 13.1838 12.4953 12.743 12.6965 12.2577C12.8976 11.7724 13.0008 11.252 13 10.7266C13.0008 10.2013 12.8977 9.6809 12.6965 9.19555C12.4954 8.71019 12.2002 8.26943 11.828 7.89864C11.735 7.80577 11.6613 7.69548 11.6109 7.57408C11.5606 7.45268 11.5347 7.32256 11.5347 7.19114C11.5347 7.05972 11.5606 6.9296 11.6109 6.8082C11.6613 6.6868 11.735 6.57651 11.828 6.48364V6.48364Z" fill="#F3F4F6"/>
</g>
</svg>
